<svg width="36" height="36" viewBox="0 0 36 36" fill="none" xmlns="http://www.w3.org/2000/svg">
<path d="M10.9828 2.65075C10.7578 2.74919 10.1496 3.50857 9.6293 4.33825C9.03165 5.29802 8.46211 6.6199 8.22657 7.6113C7.94532 8.78552 7.85391 10.1672 7.98399 11.3027C8.13868 12.6492 8.41993 13.4859 9.18985 14.9062L9.35508 15.2051L9.21446 15.7851C9.06329 16.4074 8.91915 17.0683 8.77149 17.8242C8.71875 18.0843 8.65547 18.3867 8.63086 18.4922C8.40235 19.3922 8.11407 20.8054 8.09649 21.0937C8.03672 22.1238 8.62383 23.4281 10.4168 26.2441C10.5539 26.455 10.8879 26.9929 11.1621 27.4394C12.2906 29.2711 12.6914 29.816 13.8762 31.1343C14.5125 31.8445 14.8606 32.1574 15.3914 32.509C15.8379 32.8043 16.1438 32.9554 16.6289 33.1136C17.8102 33.4968 19.0512 33.5039 20.2324 33.1277C20.9074 32.9133 21.1676 32.7586 21.8918 32.1433C22.384 31.725 22.841 31.2504 23.2348 30.7441C23.5441 30.3539 24.3035 29.2218 24.8555 28.3359C25.0559 28.016 25.4988 27.3269 25.8398 26.8066C27.2742 24.6199 27.9949 23.2769 28.2797 22.2715C28.5258 21.3961 28.5012 21.0797 28.0617 19.3008C27.8895 18.5941 27.6891 17.7644 27.6152 17.4551C27.5449 17.1457 27.4078 16.5761 27.3129 16.1929C27.218 15.8062 27.1512 15.4828 27.1688 15.4722C27.4148 15.3035 27.9809 14.8254 28.1004 14.6847C28.8773 13.7707 29.4469 12.0691 29.3238 11.0215C29.257 10.466 29.2395 10.3711 29.1938 10.3359C29.127 10.2761 28.9723 10.3711 28.7648 10.5996C28.6664 10.7051 28.5785 10.7929 28.568 10.7929C28.5574 10.7929 28.5469 10.7015 28.5469 10.589C28.5469 10.3359 28.4344 9.5449 28.3359 9.10544C28.1566 8.2863 27.9141 7.52341 27.5168 6.52146C26.8734 4.89372 26.1352 3.67732 25.4039 3.05505C24.8625 2.59099 24.5426 2.51716 24.416 2.82654C24.3563 2.96365 24.2402 3.47693 24.0645 4.34177C23.9098 5.09763 23.4281 6.68669 23.1645 7.31247C22.7707 8.24411 21.9059 9.88239 21.6352 10.2058L21.5648 10.2937L21.1957 10.1918C20.5875 10.016 20.2359 9.95622 19.3008 9.85779C17.9262 9.71716 17.0719 9.75232 15.8555 10.0054C15.4758 10.0863 14.7234 10.2867 14.5512 10.3535C14.4809 10.3816 14.4422 10.3148 13.9676 9.38669C13.3102 8.09646 12.7898 6.8906 12.2449 5.37888C11.9531 4.57732 11.8195 4.1449 11.6895 3.58591C11.4715 2.65427 11.3484 2.49255 10.9828 2.65075ZM11.0918 16.65C11.6297 17.3179 12.6809 18.3375 13.834 19.3183C14.7621 20.1093 15.9891 21.2484 16.2809 21.5929L16.4215 21.7617L16.1824 21.9375C15.1453 22.7039 13.7461 22.841 12.6387 22.2855C12.1852 22.0535 11.8863 21.839 11.5488 21.4945C10.4344 20.3625 10.1109 18.6433 10.6207 16.6113C10.6594 16.4566 10.7016 16.3195 10.7121 16.3019C10.7473 16.2457 10.8141 16.3054 11.0918 16.65ZM25.9066 16.8398C26.1106 17.673 26.1773 18.682 26.0719 19.364C26.0051 19.7965 25.8293 20.3414 25.6254 20.7492C25.1508 21.6949 24.3246 22.3523 23.284 22.6125C22.6688 22.7672 21.6492 22.6898 21.0516 22.4472C20.8863 22.3804 20.2922 22.05 20.2148 21.9832C20.1832 21.9551 21.1922 20.9742 22.0606 20.1972C22.9676 19.3851 24.6094 17.7574 25.3828 16.8996C25.6395 16.6148 25.7941 16.4707 25.8082 16.4988C25.8223 16.5199 25.8645 16.6746 25.9066 16.8398ZM24.0961 25.2316C24.0469 25.5164 23.8781 25.9523 23.618 26.4726C23.4703 26.7715 23.3332 27.0386 23.3121 27.0668C23.2875 27.1054 23.2559 27.0879 23.1645 26.9824C23.0449 26.8488 22.7883 26.666 22.7602 26.6941C22.7496 26.7047 22.725 26.8207 22.7074 26.9508C22.493 28.4238 22.1344 29.148 21.375 29.6472C21.0375 29.8687 20.3449 30.2062 19.9898 30.3222C18.8648 30.6949 17.4797 30.709 16.5375 30.3539C15.9961 30.1535 15.1981 29.6965 14.8113 29.366C14.5934 29.1832 14.2699 28.7121 14.0484 28.255C13.8656 27.8859 13.7004 27.2847 13.7145 27.0492C13.725 26.891 13.6863 26.8277 13.5773 26.8242C13.5527 26.8242 13.4648 26.898 13.377 26.9894C13.2891 27.0773 13.2117 27.1476 13.2047 27.1371C13.159 27.0879 12.7793 26.3672 12.6633 26.1035C12.477 25.6886 12.3258 25.1367 12.3996 25.1367C12.4137 25.1367 12.6949 25.2457 13.0254 25.3793L13.6195 25.6183L13.7988 26.0543C14.0309 26.6168 14.3297 27.2039 14.5371 27.5133C14.7797 27.8648 15.191 28.3711 15.2402 28.3711C15.2754 28.3711 15.5074 27.6047 15.7887 26.55C15.8309 26.3918 15.8801 26.2617 15.8941 26.2617C15.9082 26.2617 16.0383 26.2863 16.1789 26.3144C17.1773 26.5289 18.9598 26.5254 20.2395 26.3074C20.4363 26.2758 20.6051 26.2547 20.6156 26.2652C20.6332 26.2828 21.1289 27.6328 21.259 28.0195C21.3082 28.1636 21.3574 28.2902 21.3645 28.3008C21.3961 28.3324 21.7231 27.9422 21.9234 27.6468C22.166 27.2812 22.4543 26.6765 22.6336 26.1422C22.7145 25.9136 22.7848 25.7203 22.7918 25.7097C22.8164 25.6886 24.0609 25.1086 24.0926 25.1051C24.1066 25.1015 24.1102 25.1613 24.0961 25.2316Z" fill="white"/>
<path d="M17.1176 28.2691C16.9559 28.5996 16.8117 28.8773 16.8012 28.8844C16.773 28.9019 16.3441 28.248 16.1684 27.9246C16.1016 27.8016 16.0383 27.7031 16.0277 27.7031C15.9996 27.7031 15.5461 28.6523 15.518 28.7648C15.5039 28.8316 15.518 28.8879 15.5672 28.9512L15.641 29.0426L15.7078 28.8914C15.7816 28.7262 15.866 28.6383 15.982 28.6031C16.0418 28.5855 16.0945 28.6207 16.2387 28.7789C16.3371 28.8879 16.5023 29.1023 16.6043 29.257C16.7555 29.4926 16.7906 29.5277 16.8223 29.482C16.9945 29.1973 17.3953 28.6348 17.4445 28.6031C17.4937 28.575 17.5289 28.5891 17.6273 28.684C17.7609 28.8141 18.2461 29.5031 18.2461 29.5629C18.2461 29.6367 18.2988 29.6016 18.3867 29.468C18.675 29.032 19.0477 28.6172 19.1566 28.6172C19.2375 28.6172 19.4203 28.8211 19.6383 29.1621L19.8703 29.5277L20.0637 29.2254C20.3555 28.7543 20.4926 28.582 20.5699 28.582C20.6086 28.582 20.7316 28.6769 20.8477 28.7965C21.1113 29.0672 21.1184 29.0215 20.8969 28.4519C20.7422 28.0477 20.598 27.7629 20.5312 27.7207C20.5137 27.7102 20.4504 27.798 20.3871 27.9176C20.1797 28.3324 19.8211 28.8668 19.7789 28.8316C19.7543 28.8105 19.5961 28.5434 19.4238 28.234C19.248 27.9246 19.1004 27.6715 19.0898 27.668C19.0793 27.668 18.9844 27.8297 18.8789 28.0266C18.6152 28.5293 18.3164 29.0074 18.2812 28.9863C18.2426 28.9617 17.9859 28.5715 17.7047 28.0969C17.5711 27.8824 17.4551 27.6961 17.441 27.6891C17.4269 27.6785 17.2828 27.9422 17.1176 28.2691Z" fill="white"/>
</svg>
